# xmcd CD database file
#
# Track frame offsets:
#	150
#	10575
#	24375
#	47925
#	68625
#	85425
#	100575
#	115575
#	135375
#	157425
#	175425
#	195825
#	221775
#	234675
#	248625
#	265275
#
# Disc length: 3657 seconds
#
# Revision: 0
# Processed by: cddbd v1.5.2PL0 Copyright (c) Steve Scherf et al.
# Submitted via: CDex 1.70beta2
#
DISCID=d60e4710
DTITLE=Martha Lorin - Don't Slam That Door!
DYEAR=2007
DGENRE=Jazz
TTITLE0=The Best is Yet to Come
TTITLE1=Ill Wind
TTITLE2=Low Down Blues
TTITLE3=We Two
TTITLE4=Let's Begin Again
TTITLE5=Nerves
TTITLE6=Remember (for Shelly Mann)
TTITLE7=Close Enough for Love
TTITLE8=Come Walk with Me
TTITLE9=Rain Song
TTITLE10=New York State of Mind
TTITLE11=Close Your Eyes
TTITLE12=Coney Island
TTITLE13=Last Night When we were Young
TTITLE14=You've Changed
TTITLE15=Don't Slam that Door
EXTD=YEAR: 2007
EXTT0=
EXTT1=
EXTT2=
EXTT3=
EXTT4=
EXTT5=
EXTT6=
EXTT7=
EXTT8=
EXTT9=
EXTT10=
EXTT11=
EXTT12=
EXTT13=
EXTT14=
EXTT15=
PLAYORDER=
